<?xml version="1.0" standalone="no"?>
<!DOCTYPE svg PUBLIC "-//W3C//DTD SVG 20010904//EN"
 "http://www.w3.org/TR/2001/REC-SVG-20010904/DTD/svg10.dtd">
<svg version="1.0" xmlns="http://www.w3.org/2000/svg"
 width="260.000000pt" height="260.000000pt" viewBox="0 0 260.000000 260.000000"
 preserveAspectRatio="xMidYMid meet">
<metadata>
Created by potrace 1.11, written by Peter Selinger 2001-2013
</metadata>
<g transform="translate(0.000000,260.000000) scale(0.100000,-0.100000)"
fill="#000000" stroke="none">
<path d="M2339 2346 c-2 -2 -29 -6 -60 -9 -31 -3 -65 -10 -76 -15 -11 -6 -31
-12 -46 -14 -14 -2 -29 -7 -33 -11 -4 -4 -16 -7 -26 -7 -10 0 -26 -4 -36 -9
-34 -17 -77 -34 -97 -38 -21 -3 -49 -15 -106 -44 -44 -23 -97 -27 -128 -10
-33 18 -78 24 -191 24 -81 0 -238 -14 -290 -26 -8 -2 -37 -7 -65 -11 -74 -12
-79 -13 -95 -19 -8 -3 -26 -8 -40 -12 -14 -3 -41 -11 -60 -16 -19 -5 -48 -12
-65 -15 -16 -3 -45 -12 -64 -20 -48 -20 -84 -17 -139 10 -88 44 -142 66 -162
66 -11 0 -20 5 -20 10 0 6 -12 10 -26 10 -14 0 -53 7 -85 15 -75 20 -235 27
-247 11 -5 -6 -12 -24 -16 -41 -3 -16 -8 -40 -11 -52 -13 -61 -24 -123 -30
-168 -2 -16 -4 -30 -5 -30 -11 0 -18 -281 -8 -325 20 -83 21 -157 3 -211 -10
-30 -21 -56 -25 -59 -23 -16 -38 -332 -20 -420 22 -105 92 -261 140 -308 17
-18 28 -32 24 -32 -6 0 14 -18 100 -93 12 -10 40 -27 63 -38 23 -10 45 -23 48
-29 3 -5 15 -10 26 -10 10 0 19 -3 19 -7 0 -5 18 -17 40 -27 22 -11 40 -22 40
-26 0 -4 28 -13 63 -20 34 -7 66 -17 71 -21 6 -5 25 -9 44 -9 19 0 48 -6 65
-14 45 -20 115 -28 242 -28 167 0 297 11 330 27 20 9 69 14 137 16 124 2 203
18 294 59 35 17 69 30 74 30 6 0 10 5 10 10 0 6 6 10 13 10 6 0 51 20 98 44
48 24 98 46 113 50 14 3 26 11 26 16 0 6 9 10 20 10 11 0 20 5 20 10 0 6 7 10
15 10 8 0 15 4 15 8 0 4 15 16 32 27 45 26 71 54 100 106 55 97 63 109 74 109
13 0 55 94 75 165 35 130 38 155 35 290 -1 77 -5 150 -9 161 -10 38 -36 113
-46 131 -24 46 -31 115 -36 328 -5 245 -9 280 -45 372 -12 32 -27 70 -32 86
-10 25 -19 32 -29 23z"/>
</g>
</svg>
